<svg 
 xmlns="http://www.w3.org/2000/svg"
 xmlns:xlink="http://www.w3.org/1999/xlink"
 width="44px" height="27px">
<path fill-rule="evenodd"  fill="rgb(255, 255, 255)"
 d="M23.030,26.896 C24.465,26.896 24.465,24.811 24.465,24.003 C24.465,22.556 25.899,21.110 27.334,21.110 C28.769,21.110 31.230,23.591 33.073,25.449 C34.509,26.896 34.509,26.896 35.944,26.896 C37.378,26.896 40.248,26.896 40.248,26.896 C40.248,26.896 43.117,26.785 43.117,24.003 C43.117,23.099 42.135,21.566 38.813,18.217 C35.944,15.324 34.471,16.819 38.813,10.986 C41.457,7.433 43.381,4.215 43.051,3.287 C42.735,2.400 35.381,0.989 34.509,2.308 C31.638,6.646 31.112,7.710 30.204,9.539 C28.769,12.432 28.627,13.878 27.334,13.878 C26.030,13.878 25.899,11.071 25.899,9.539 C25.899,4.757 26.587,1.376 24.465,0.861 C24.465,0.861 21.595,0.861 20.160,0.861 C17.850,0.861 15.856,2.308 15.856,2.308 C15.856,2.308 14.075,3.708 14.420,3.754 C14.849,3.812 17.291,3.155 17.291,5.200 C17.291,6.646 17.291,8.093 17.291,8.093 C17.291,8.093 17.304,13.878 15.856,13.878 C14.420,13.878 11.552,8.093 8.681,3.754 C7.555,2.052 7.247,2.308 5.812,2.308 C4.273,2.308 2.944,2.368 1.507,2.368 C0.073,2.368 -0.111,3.289 0.073,3.754 C2.942,10.986 5.004,15.527 10.456,21.249 C15.457,26.498 18.797,26.777 21.595,26.896 C22.312,26.926 21.595,26.896 23.030,26.896 Z"/>
</svg>