<svg 
 xmlns="http://www.w3.org/2000/svg"
 xmlns:xlink="http://www.w3.org/1999/xlink"
 width="51px" height="51px">
<path fill-rule="evenodd"  fill="currentColor"
 d="M46.662,46.928 C44.042,49.447 40.414,50.858 36.081,50.858 L15.523,50.858 C11.391,50.858 7.763,49.548 5.042,46.928 C2.220,44.207 0.809,40.478 0.809,36.145 L0.809,15.486 C0.809,6.718 6.654,0.873 15.422,0.873 L36.182,0.873 C40.414,0.873 44.143,2.284 46.763,5.005 C49.383,7.626 50.794,11.253 50.794,15.486 L50.794,36.246 C50.794,40.579 49.383,44.307 46.662,46.928 ZM46.360,15.486 C46.360,12.563 45.352,10.044 43.639,8.230 C41.825,6.416 39.306,5.509 36.282,5.509 L15.523,5.509 C12.499,5.509 9.879,6.416 8.166,8.129 C6.352,9.943 5.445,12.462 5.445,15.486 L5.445,36.145 C5.445,39.269 6.352,41.788 8.166,43.602 C9.980,45.315 12.499,46.222 15.523,46.222 L36.081,46.222 C39.104,46.222 41.624,45.315 43.437,43.602 C45.251,41.889 46.158,39.369 46.158,36.246 L46.360,36.246 L46.360,15.486 ZM39.204,15.486 C37.590,15.486 36.282,14.178 36.282,12.563 C36.282,10.949 37.590,9.641 39.204,9.641 C40.819,9.641 42.127,10.949 42.127,12.563 C42.127,14.178 40.819,15.486 39.204,15.486 ZM25.801,38.664 C18.647,38.664 12.902,32.920 12.902,25.765 C12.902,18.610 18.748,12.865 25.801,12.865 C32.856,12.865 38.701,18.710 38.701,25.765 C38.701,32.819 32.957,38.664 25.801,38.664 ZM25.801,17.501 C21.267,17.501 17.538,21.230 17.538,25.765 C17.538,30.300 21.267,34.029 25.801,34.029 C30.337,34.029 34.065,30.300 34.065,25.765 C34.065,21.230 30.337,17.501 25.801,17.501 Z"/>
</svg>