<svg 
 xmlns="http://www.w3.org/2000/svg"
 xmlns:xlink="http://www.w3.org/1999/xlink"
 width="50px" height="40px">
<path fill-rule="evenodd"  fill="rgb(255, 255, 255)"
 d="M49.929,4.732 C48.127,5.536 46.189,6.079 44.154,6.322 C46.231,5.073 47.824,3.094 48.575,0.735 C46.632,1.893 44.481,2.733 42.190,3.186 C40.357,1.224 37.743,-0.003 34.851,-0.003 C29.299,-0.003 24.797,4.518 24.797,10.096 C24.797,10.886 24.885,11.657 25.058,12.397 C16.700,11.975 9.291,7.956 4.331,1.846 C3.466,3.336 2.971,5.071 2.971,6.923 C2.971,10.427 4.745,13.518 7.443,15.329 C5.795,15.276 4.245,14.821 2.888,14.064 C2.888,14.106 2.888,14.150 2.888,14.193 C2.888,19.084 6.354,23.165 10.954,24.094 C10.111,24.324 9.222,24.448 8.305,24.448 C7.656,24.448 7.027,24.385 6.413,24.266 C7.693,28.278 11.406,31.198 15.805,31.279 C12.364,33.989 8.029,35.603 3.317,35.603 C2.506,35.603 1.706,35.555 0.919,35.461 C5.370,38.328 10.655,39.998 16.333,39.998 C34.828,39.998 44.941,24.611 44.941,11.266 C44.941,10.829 44.932,10.392 44.913,9.958 C46.877,8.537 48.582,6.757 49.929,4.732 Z"/>
</svg>