<svg 
 xmlns="http://www.w3.org/2000/svg"
 xmlns:xlink="http://www.w3.org/1999/xlink"
 width="38px" height="32px">
<path fill-rule="evenodd"  fill="currentColor"
 d="M38.011,4.194 C36.624,4.810 35.132,5.226 33.566,5.413 C35.165,4.455 36.391,2.938 36.969,1.130 C35.474,2.017 33.818,2.661 32.054,3.009 C30.643,1.505 28.632,0.564 26.406,0.564 C22.132,0.564 18.667,4.030 18.667,8.306 C18.667,8.912 18.735,9.502 18.868,10.070 C12.435,9.747 6.733,6.665 2.915,1.981 C2.249,3.124 1.868,4.454 1.868,5.874 C1.868,8.560 3.233,10.929 5.310,12.317 C4.042,12.277 2.849,11.928 1.804,11.348 C1.804,11.380 1.804,11.414 1.804,11.447 C1.804,15.196 4.472,18.325 8.013,19.037 C7.364,19.213 6.679,19.309 5.974,19.309 C5.474,19.309 4.990,19.260 4.517,19.169 C5.502,22.245 8.360,24.483 11.746,24.545 C9.098,26.622 5.761,27.860 2.135,27.860 C1.511,27.860 0.894,27.823 0.289,27.751 C3.715,29.949 7.782,31.229 12.152,31.229 C26.388,31.229 34.172,19.433 34.172,9.203 C34.172,8.867 34.165,8.533 34.150,8.200 C35.661,7.111 36.974,5.747 38.011,4.194 Z"/>
</svg>