<svg 
 xmlns="http://www.w3.org/2000/svg"
 xmlns:xlink="http://www.w3.org/1999/xlink"
 width="56px" height="34px">
<path fill-rule="evenodd"  fill="currentColor"
 d="M29.902,33.954 C31.767,33.954 31.767,31.235 31.767,30.181 C31.767,28.294 33.630,26.407 35.495,26.407 C37.359,26.407 40.556,29.643 42.951,32.067 C44.816,33.954 44.816,33.954 46.680,33.954 C48.544,33.954 52.272,33.954 52.272,33.954 C52.272,33.954 56.001,33.811 56.001,30.181 C56.001,29.001 54.724,27.002 50.408,22.634 C46.680,18.860 44.767,20.810 50.408,13.200 C53.844,8.567 56.344,4.369 55.915,3.158 C55.505,2.001 45.949,0.160 44.816,1.880 C41.087,7.540 40.403,8.927 39.223,11.313 C37.359,15.087 37.174,16.974 35.495,16.974 C33.800,16.974 33.630,13.312 33.630,11.313 C33.630,5.076 34.523,0.666 31.767,-0.007 C31.767,-0.007 28.038,-0.007 26.174,-0.007 C23.172,-0.007 20.581,1.880 20.581,1.880 C20.581,1.880 18.268,3.706 18.717,3.767 C19.272,3.843 22.446,2.986 22.446,5.653 C22.446,7.540 22.446,9.427 22.446,9.427 C22.446,9.427 22.462,16.974 20.581,16.974 C18.717,16.974 14.989,9.427 11.260,3.767 C9.797,1.546 9.396,1.880 7.532,1.880 C5.533,1.880 3.806,1.959 1.939,1.959 C0.076,1.959 -0.163,3.161 0.076,3.767 C3.804,13.200 6.482,19.125 13.566,26.588 C20.063,33.435 24.403,33.799 28.038,33.954 C28.970,33.994 28.038,33.954 29.902,33.954 Z"/>
</svg>