<svg 
 xmlns="http://www.w3.org/2000/svg"
 xmlns:xlink="http://www.w3.org/1999/xlink"
 width="47px" height="55px">
<path fill-rule="evenodd"  fill="rgb(255, 255, 255)"
 d="M39.730,40.210 L36.659,40.210 L36.659,38.438 C36.659,37.644 37.285,37.033 38.100,37.033 L38.288,37.033 C39.103,37.033 39.730,37.644 39.730,38.438 L39.730,40.210 ZM28.136,36.483 C27.322,36.483 26.695,36.972 26.695,37.644 L26.695,46.199 C26.695,46.811 27.322,47.361 28.136,47.361 C28.951,47.361 29.578,46.871 29.578,46.199 L29.578,37.644 C29.578,36.972 28.951,36.483 28.136,36.483 ZM46.999,31.716 L46.999,47.910 C46.999,51.822 43.552,54.999 39.291,54.999 L7.707,54.999 C3.446,54.999 -0.001,51.822 -0.001,47.910 L-0.001,31.716 C-0.001,27.805 3.446,24.627 7.707,24.627 L39.353,24.627 C43.552,24.627 46.999,27.805 46.999,31.716 ZM9.775,49.682 L9.775,32.572 L13.723,32.572 L13.723,30.066 L3.257,30.066 L3.257,32.572 L6.516,32.572 L6.516,49.682 L9.775,49.682 ZM21.556,35.138 L18.297,35.138 L18.297,44.244 C18.297,45.588 18.361,46.199 18.297,46.443 C18.047,47.178 16.856,47.910 16.355,46.505 C16.292,46.260 16.355,45.527 16.355,44.305 L16.355,35.138 L13.096,35.138 L13.096,44.183 C13.096,45.588 13.034,46.627 13.096,47.055 C13.159,47.910 13.159,48.827 13.911,49.377 C15.352,50.416 18.172,49.194 18.924,47.727 L18.924,49.622 L21.556,49.622 L21.556,35.138 L21.556,35.138 ZM32.022,45.588 L32.022,38.011 C32.022,35.138 29.828,33.366 26.758,35.749 L26.758,30.127 L23.499,30.127 L23.499,49.622 L26.194,49.561 L26.444,48.338 C29.828,51.394 32.022,49.255 32.022,45.588 ZM42.236,44.610 L39.792,44.610 C39.792,44.732 39.792,44.794 39.792,44.916 L39.792,46.260 C39.792,46.994 39.166,47.543 38.476,47.543 L37.975,47.543 C37.223,47.543 36.659,46.933 36.659,46.260 L36.659,46.138 L36.659,44.610 L36.659,42.777 L42.299,42.777 L42.299,40.700 C42.299,39.172 42.236,37.705 42.111,36.849 C41.735,34.099 37.787,33.672 35.782,35.077 C35.155,35.505 34.716,36.116 34.403,36.849 C34.152,37.644 33.964,38.683 33.964,40.088 L33.964,44.610 C33.964,52.127 43.364,51.088 42.236,44.610 ZM29.640,19.982 C29.828,20.410 30.079,20.716 30.455,20.961 C30.831,21.205 31.269,21.327 31.771,21.327 C32.272,21.327 32.648,21.205 33.024,20.961 C33.401,20.716 33.714,20.349 33.964,19.799 L33.901,21.021 L37.536,21.021 L37.536,5.927 L34.653,5.927 L34.653,17.722 C34.653,18.333 34.090,18.883 33.463,18.883 C32.836,18.883 32.272,18.333 32.272,17.722 L32.272,5.927 L29.264,5.927 L29.264,16.133 C29.264,17.416 29.264,18.271 29.327,18.761 C29.390,19.189 29.515,19.616 29.640,19.982 ZM18.611,11.488 C18.611,10.022 18.736,8.921 18.987,8.066 C19.238,7.271 19.676,6.599 20.303,6.110 C20.929,5.622 21.744,5.377 22.747,5.377 C23.561,5.377 24.313,5.561 24.940,5.866 C25.567,6.172 26.006,6.599 26.319,7.088 C26.632,7.577 26.883,8.127 27.008,8.677 C27.133,9.227 27.196,10.022 27.196,11.122 L27.196,14.972 C27.196,16.377 27.133,17.416 27.008,18.088 C26.883,18.761 26.632,19.371 26.319,19.922 C25.943,20.472 25.504,20.899 24.940,21.205 C24.376,21.449 23.687,21.633 22.935,21.633 C22.120,21.633 21.431,21.510 20.804,21.266 C20.240,21.021 19.802,20.655 19.488,20.227 C19.175,19.738 18.924,19.189 18.799,18.516 C18.674,17.843 18.611,16.866 18.611,15.522 L18.611,11.488 L18.611,11.488 ZM21.493,17.477 C21.493,18.333 22.120,19.005 22.935,19.005 C23.749,19.005 24.376,18.333 24.376,17.477 L24.376,9.410 C24.376,8.555 23.749,7.883 22.935,7.883 C22.120,7.883 21.493,8.555 21.493,9.410 L21.493,17.477 ZM11.404,21.510 L14.851,21.510 L14.851,9.899 L18.924,-0.000 L15.164,-0.000 L13.034,7.394 L10.777,-0.000 L7.080,-0.000 L11.404,9.961 L11.404,21.510 Z"/>
</svg>